<svg xmlns="http://www.w3.org/2000/svg" viewBox="0 0 247 271.63"><defs><style>.a,.b,.c{fill:purple;}.a,.b{fill-rule:evenodd;}.a{opacity:0.35;}.b{opacity:0.25;}</style></defs><title>purpur-logo</title><path class="a" d="M123.5,0c-1,35-90,145-1,170h2C213.46,145,124.5,35,123.5,0Z"/><path class="b" d="M55,15c13.93,32.22-20.36,169.85,71.18,154.86L128,169C198.34,108.6,70.75,46.37,55,15Z"/><path class="b" d="M0,55C26.11,78.33,53.1,217.62,129.28,165.36l1.28-1.54C168.53,79.33,27.39,76.79,0,55Z"/><path class="b" d="M120,169l1.82.85C213.36,184.85,179.07,47.22,193,15,177.25,46.37,49.66,108.6,120,169Z"/><path class="b" d="M116.44,163.82l1.28,1.54C193.9,217.62,220.89,78.33,247,55,219.61,76.79,78.47,79.33,116.44,163.82Z"/><path class="c" d="M8.74,243.5V195.22H28.41a12,12,0,0,1,5.45,1.26,13.94,13.94,0,0,1,4.32,3.33A15.93,15.93,0,0,1,41,204.5a14.58,14.58,0,0,1,1,5.34,16.16,16.16,0,0,1-1,5.51A15,15,0,0,1,38.38,220a13.26,13.26,0,0,1-4.15,3.26,11.65,11.65,0,0,1-5.34,1.22H10.1v19Zm1.36-20.33H28.89A10.49,10.49,0,0,0,33.82,222,11.34,11.34,0,0,0,37.53,219a14.45,14.45,0,0,0,2.31-4.28,14.78,14.78,0,0,0,.82-4.83,13.24,13.24,0,0,0-1-5,13.9,13.9,0,0,0-2.62-4.22,13.21,13.21,0,0,0-3.91-3,10.52,10.52,0,0,0-4.77-1.12H10.1Z"/><path class="c" d="M65.78,242.48a18,18,0,0,0,9-2,15.91,15.91,0,0,0,5.65-5.3,21.87,21.87,0,0,0,2.93-7.41,41.53,41.53,0,0,0,.85-8.36V195.22h1.36v24.14a42.34,42.34,0,0,1-1,9.25,22.08,22.08,0,0,1-3.3,7.79,17.13,17.13,0,0,1-6.09,5.41,19.5,19.5,0,0,1-9.36,2,19.5,19.5,0,0,1-9.53-2.11,17,17,0,0,1-6.09-5.58A23.05,23.05,0,0,1,47,228.3a42,42,0,0,1-1-8.94V195.22H47.4v24.14a42.14,42.14,0,0,0,.85,8.5,21.44,21.44,0,0,0,3,7.41,15.69,15.69,0,0,0,5.65,5.24A18.14,18.14,0,0,0,65.78,242.48Z"/><path class="c" d="M90.76,243.5V195.22h19.67a12,12,0,0,1,5.45,1.26,13.92,13.92,0,0,1,4.32,3.33A15.93,15.93,0,0,1,123,204.5a14.58,14.58,0,0,1,1,5.34,16.47,16.47,0,0,1-.89,5.37,14.74,14.74,0,0,1-2.52,4.59,13.26,13.26,0,0,1-3.91,3.26,12.12,12.12,0,0,1-5,1.46l12.25,19h-1.63l-12.25-19h-18v19Zm1.36-20.33h18.79a10.29,10.29,0,0,0,4.9-1.16,12,12,0,0,0,3.71-3,13.62,13.62,0,0,0,2.35-4.25,15,15,0,0,0,.82-4.9,13.25,13.25,0,0,0-1-5,13.93,13.93,0,0,0-2.62-4.22,13.21,13.21,0,0,0-3.91-3,10.52,10.52,0,0,0-4.76-1.12H92.12Z"/><path class="c" d="M129.69,243.5V195.22h19.67a12,12,0,0,1,5.45,1.26,13.92,13.92,0,0,1,4.32,3.33A15.93,15.93,0,0,1,162,204.5a14.58,14.58,0,0,1,1,5.34,16.17,16.17,0,0,1-1,5.51,15,15,0,0,1-2.69,4.69,13.26,13.26,0,0,1-4.15,3.26,11.65,11.65,0,0,1-5.34,1.22H131.05v19Zm1.36-20.33h18.79a10.49,10.49,0,0,0,4.94-1.16,11.34,11.34,0,0,0,3.71-3.06,14.46,14.46,0,0,0,2.31-4.28,14.77,14.77,0,0,0,.82-4.83,13.25,13.25,0,0,0-1-5,13.93,13.93,0,0,0-2.62-4.22,13.21,13.21,0,0,0-3.91-3,10.52,10.52,0,0,0-4.76-1.12H131.05Z"/><path class="c" d="M186.6,242.48a18,18,0,0,0,9-2,15.91,15.91,0,0,0,5.65-5.3,21.86,21.86,0,0,0,2.93-7.41,41.5,41.5,0,0,0,.85-8.36V195.22h1.36v24.14a42.37,42.37,0,0,1-1,9.25,22.09,22.09,0,0,1-3.3,7.79A17.13,17.13,0,0,1,196,241.8a22.54,22.54,0,0,1-18.89-.07,17,17,0,0,1-6.09-5.58,23.05,23.05,0,0,1-3.23-7.85,41.9,41.9,0,0,1-1-8.94V195.22h1.36v24.14a42.11,42.11,0,0,0,.85,8.5,21.45,21.45,0,0,0,3,7.41,15.69,15.69,0,0,0,5.65,5.24A18.14,18.14,0,0,0,186.6,242.48Z"/><path class="c" d="M211.58,243.5V195.22h19.67a12,12,0,0,1,5.45,1.26,13.92,13.92,0,0,1,4.32,3.33,15.93,15.93,0,0,1,2.83,4.69,14.58,14.58,0,0,1,1,5.34,16.47,16.47,0,0,1-.89,5.37,14.74,14.74,0,0,1-2.52,4.59,13.26,13.26,0,0,1-3.91,3.26,12.12,12.12,0,0,1-5,1.46l12.25,19h-1.63l-12.25-19h-18v19Zm1.36-20.33h18.79a10.29,10.29,0,0,0,4.9-1.16,12,12,0,0,0,3.71-3,13.62,13.62,0,0,0,2.35-4.25,15,15,0,0,0,.82-4.9,13.25,13.25,0,0,0-1-5,13.93,13.93,0,0,0-2.62-4.22,13.21,13.21,0,0,0-3.91-3,10.52,10.52,0,0,0-4.76-1.12H212.94Z"/><path class="c" d="M21.4,271.5V253.75h.88v11.17l10.85-11.17H34.2l-7.48,7.78,7.82,10h-1L26.13,262l-3.85,4v5.5Z"/><path class="c" d="M56.63,271.63a7.33,7.33,0,0,1-3.37-.78,8.7,8.7,0,0,1-2.62-2,9,9,0,0,1-1.7-2.87,9.53,9.53,0,0,1-.6-3.33,9.22,9.22,0,0,1,.64-3.4,9.51,9.51,0,0,1,1.75-2.87,8.42,8.42,0,0,1,2.63-2,7.41,7.41,0,0,1,3.29-.74,7.25,7.25,0,0,1,3.38.79,8.57,8.57,0,0,1,2.61,2.06,9.54,9.54,0,0,1,1.69,2.89,9.4,9.4,0,0,1-1.79,9.55,8.5,8.5,0,0,1-2.62,2A7.35,7.35,0,0,1,56.63,271.63Zm-7.43-9a8.72,8.72,0,0,0,.55,3.08,8.43,8.43,0,0,0,1.54,2.61,7.46,7.46,0,0,0,2.35,1.81,6.63,6.63,0,0,0,3,.67,6.46,6.46,0,0,0,3-.71A7.73,7.73,0,0,0,62,268.22a8.33,8.33,0,0,0,1.5-2.62,8.82,8.82,0,0,0,.52-3,8.56,8.56,0,0,0-.56-3.08,8.65,8.65,0,0,0-1.55-2.61,7.48,7.48,0,0,0-2.35-1.81,6.53,6.53,0,0,0-2.94-.67,6.46,6.46,0,0,0-3,.71A7.73,7.73,0,0,0,51.25,257a8.77,8.77,0,0,0-2.05,5.6Z"/><path class="c" d="M91.25,256.38a5.51,5.51,0,0,0-2.15-1.51,7.88,7.88,0,0,0-2.75-.44,6.32,6.32,0,0,0-4.1,1.08A3.57,3.57,0,0,0,81,258.38a3.3,3.3,0,0,0,.31,1.51,2.71,2.71,0,0,0,1,1,6,6,0,0,0,1.67.71q1,.29,2.45.59t2.63.65a7.66,7.66,0,0,1,2,.89,3.83,3.83,0,0,1,1.27,1.34,4,4,0,0,1,.45,2,4.24,4.24,0,0,1-.44,2A3.87,3.87,0,0,1,91,270.47a5.92,5.92,0,0,1-2,.86,10.8,10.8,0,0,1-2.59.29,10.47,10.47,0,0,1-3.82-.66,9.66,9.66,0,0,1-3.15-2l.53-.62a8.35,8.35,0,0,0,2.85,1.92,9.56,9.56,0,0,0,3.63.65,7.3,7.3,0,0,0,3.94-.91,3.07,3.07,0,0,0,1.44-2.79,3.4,3.4,0,0,0-.35-1.61,3,3,0,0,0-1.06-1.12,7.25,7.25,0,0,0-1.8-.8q-1.09-.34-2.56-.64t-2.56-.62a7,7,0,0,1-1.87-.83,3.35,3.35,0,0,1-1.15-1.22,3.84,3.84,0,0,1-.39-1.83,4.67,4.67,0,0,1,.45-2.09,4.22,4.22,0,0,1,1.26-1.52,5.88,5.88,0,0,1,2-.94,9.35,9.35,0,0,1,2.55-.33,8.41,8.41,0,0,1,3,.5,6.67,6.67,0,0,1,2.37,1.6Z"/><path class="c" d="M124.9,271.5v-16L117.45,268h-.6l-7.45-12.6v16h-.87V253.75h.8L117.15,267,125,253.75h.8V271.5Z"/><path class="c" d="M154.8,270.7v.8H143.08V253.75h11.5v.8H144V262h9.3v.8H144v7.88Z"/><path class="c" d="M183.17,254.55h-6.65v17h-.87v-17H169v-.8h14.17Z"/><path class="c" d="M198.53,271.5V253.75h.88V271.5Z"/><path class="c" d="M216.7,271.5V253.75h.88v11.17l10.85-11.17h1.08L222,261.53l7.83,10h-1l-7.4-9.45-3.85,4v5.5Z"/></svg>